<svg width="24" height="24" viewBox="0 0 24 24" fill="none" xmlns="http://www.w3.org/2000/svg">
<path d="M23.7673 9.64975H22.8007V9.59995H12.0007V14.3999H18.7825C17.7931 17.1941 15.1345 19.1999 12.0007 19.1999C8.02456 19.1999 4.80077 15.9761 4.80077 11.9999C4.80077 8.02376 8.02456 4.79998 12.0007 4.79998C13.8361 4.79998 15.5059 5.49237 16.7773 6.62337L20.1715 3.22918C18.0283 1.23179 15.1615 0 12.0007 0C5.37377 0 0.000793457 5.37297 0.000793457 11.9999C0.000793457 18.6269 5.37377 23.9999 12.0007 23.9999C18.6277 23.9999 24.0007 18.6269 24.0007 11.9999C24.0007 11.1953 23.9179 10.4099 23.7673 9.64975Z" fill="#FFC107"/>
<path d="M1.38446 6.41457L5.32704 9.30595C6.39384 6.66477 8.97742 4.79998 12.0008 4.79998C13.8362 4.79998 15.506 5.49237 16.7774 6.62337L20.1716 3.22918C18.0284 1.23179 15.1616 0 12.0008 0C7.39163 0 3.39445 2.60219 1.38446 6.41457Z" fill="#FF3D00"/>
<path d="M12.0006 24C15.1002 24 17.9166 22.8139 20.046 20.8849L16.332 17.7421C15.0867 18.6891 13.5651 19.2013 12.0006 19.2001C8.87945 19.2001 6.22926 17.2099 5.23087 14.4325L1.31769 17.4475C3.30368 21.3337 7.33686 24 12.0006 24Z" fill="#4CAF50"/>
<path d="M23.7672 9.6491H22.8006V9.5993H12.0006V14.3993H18.7824C18.3091 15.7291 17.4566 16.8912 16.3302 17.7419L16.332 17.7407L20.046 20.8834C19.7832 21.1222 24.0006 17.9993 24.0006 11.9993C24.0006 11.1947 23.9178 10.4093 23.7672 9.6491Z" fill="#1976D2"/>
</svg>
