<svg width="24" height="24" viewBox="0 0 24 24" fill="none" xmlns="http://www.w3.org/2000/svg">
<path d="M11.9977 7.9983C9.79418 7.9983 7.99597 9.79651 7.99597 12C7.99597 14.2035 9.79418 16.0017 11.9977 16.0017C14.2012 16.0017 15.9994 14.2035 15.9994 12C15.9994 9.79651 14.2012 7.9983 11.9977 7.9983ZM23.9998 12C23.9998 10.3429 24.0148 8.70077 23.9217 7.04665C23.8287 5.12535 23.3904 3.4202 21.9854 2.01525C20.5775 0.607302 18.8753 0.172008 16.954 0.0789456C15.2969 -0.0141173 13.6548 0.000892936 12.0007 0.000892936C10.3435 0.000892936 8.70144 -0.0141173 7.04732 0.0789456C5.12603 0.172008 3.42087 0.610305 2.01593 2.01525C0.607974 3.42321 0.17268 5.12535 0.079617 7.04665C-0.0134459 8.70377 0.00156432 10.3459 0.00156432 12C0.00156432 13.6541 -0.0134459 15.2992 0.079617 16.9533C0.17268 18.8746 0.610976 20.5798 2.01593 21.9847C3.42388 23.3927 5.12603 23.828 7.04732 23.9211C8.70444 24.0141 10.3466 23.9991 12.0007 23.9991C13.6578 23.9991 15.2999 24.0141 16.954 23.9211C18.8753 23.828 20.5805 23.3897 21.9854 21.9847C23.3934 20.5768 23.8287 18.8746 23.9217 16.9533C24.0178 15.2992 23.9998 13.6571 23.9998 12ZM11.9977 18.1572C8.59037 18.1572 5.84051 15.4073 5.84051 12C5.84051 8.5927 8.59037 5.84284 11.9977 5.84284C15.405 5.84284 18.1548 8.5927 18.1548 12C18.1548 15.4073 15.405 18.1572 11.9977 18.1572ZM18.407 7.02864C17.6115 7.02864 16.969 6.38621 16.969 5.59067C16.969 4.79513 17.6115 4.1527 18.407 4.1527C19.2025 4.1527 19.845 4.79513 19.845 5.59067C19.8452 5.77957 19.8082 5.96667 19.736 6.14124C19.6638 6.31581 19.5579 6.47442 19.4243 6.608C19.2908 6.74157 19.1321 6.84748 18.9576 6.91967C18.783 6.99185 18.5959 7.02888 18.407 7.02864Z" fill="url(#paint0_linear_31219_332)"/>
<defs>
<linearGradient id="paint0_linear_31219_332" x1="3.21499" y1="1.02069" x2="20.7811" y2="22.9784" gradientUnits="userSpaceOnUse">
<stop stop-color="#CE00D2"/>
<stop offset="0.557292" stop-color="#E6758D"/>
<stop offset="1" stop-color="#FFC364"/>
</linearGradient>
</defs>
</svg>
