<svg width="48" height="48" viewBox="0 0 48 48" fill="none" xmlns="http://www.w3.org/2000/svg">
<path d="M16.125 38.6699C18.8958 40.1283 21.5208 40.8574 24 40.8574C26.4792 40.8574 29.0677 40.1283 31.7656 38.6699C34.5365 37.2116 36.6146 35.4251 38 33.3105C37.9271 31.2689 36.2865 29.5553 33.0781 28.1699C29.8698 26.7845 26.8438 26.0918 24 26.0918C21.1562 26.0918 18.1302 26.7845 14.9219 28.1699C11.7135 29.4824 10.0729 31.196 10 33.3105C11.3854 35.4251 13.4271 37.2116 16.125 38.6699ZM28.9219 9.79492C27.5365 8.40951 25.8958 7.7168 24 7.7168C22.1042 7.7168 20.4635 8.40951 19.0781 9.79492C17.6927 11.1803 17 12.821 17 14.7168C17 16.6126 17.6927 18.2533 19.0781 19.6387C20.4635 21.0241 22.1042 21.7168 24 21.7168C25.8958 21.7168 27.5365 21.0241 28.9219 19.6387C30.3073 18.2533 31 16.6126 31 14.7168C31 12.821 30.3073 11.1803 28.9219 9.79492ZM7.48438 7.60742C12.0781 3.01367 17.5833 0.716797 24 0.716797C30.4167 0.716797 35.8854 3.01367 40.4062 7.60742C45 12.1283 47.2969 17.597 47.2969 24.0137C47.2969 30.4303 45 35.9355 40.4062 40.5293C35.8854 45.0501 30.4167 47.3105 24 47.3105C17.5833 47.3105 12.0781 45.0501 7.48438 40.5293C2.96354 35.9355 0.703125 30.4303 0.703125 24.0137C0.703125 17.597 2.96354 12.1283 7.48438 7.60742Z" fill="#0B3B60"/>
</svg>
