<!DOCTYPE svg PUBLIC "-//W3C//DTD SVG 1.1//EN" "http://www.w3.org/Graphics/SVG/1.1/DTD/svg11.dtd">

<!-- Uploaded to: SVG Repo, www.svgrepo.com, Transformed by: SVG Repo Mixer Tools -->
<svg width="64px" height="64px" viewBox="0 0 48.00 48.00" xmlns="http://www.w3.org/2000/svg" fill="#0B3B60" stroke="#0B3B60" stroke-width="2.016">

<g id="SVGRepo_bgCarrier" stroke-width="0"/>

<g id="SVGRepo_tracerCarrier" stroke-linecap="round" stroke-linejoin="round" stroke="#CCCCCC" stroke-width="0.8640000000000001">

<defs>

<style>.a{fill:none;stroke:#0B3B60;stroke-linecap:round;stroke-linejoin:round;}</style>

</defs>

<path class="a" d="M37.275,32.6778V21.4705A13.2692,13.2692,0,0,0,27.08,8.569V7.5839a3.1015,3.1015,0,0,0-6.2029,0V8.58a13.2692,13.2692,0,0,0-10.1519,12.89V32.6778L6.52,36.8831v1.9422H41.48V36.883Z"/>

<path class="a" d="M19.3269,38.8253a4.6507,4.6507,0,0,0,9.3013.048v-.048"/>

</g>

<g id="SVGRepo_iconCarrier">

<defs>

<style>.a{fill:none;stroke:#0B3B60;stroke-linecap:round;stroke-linejoin:round;}</style>

</defs>

<path class="a" d="M37.275,32.6778V21.4705A13.2692,13.2692,0,0,0,27.08,8.569V7.5839a3.1015,3.1015,0,0,0-6.2029,0V8.58a13.2692,13.2692,0,0,0-10.1519,12.89V32.6778L6.52,36.8831v1.9422H41.48V36.883Z"/>

<path class="a" d="M19.3269,38.8253a4.6507,4.6507,0,0,0,9.3013.048v-.048"/>

</g>

</svg>