<svg width="24" height="24" viewBox="0 0 24 24" fill="none" xmlns="http://www.w3.org/2000/svg">
<path d="M6.34466 20.6267L6.737 20.8214C8.37197 21.7943 10.203 22.2484 12.0341 22.2484C17.7888 22.2484 22.4973 17.5781 22.4973 11.87C22.4973 9.14572 21.3855 6.48624 19.4237 4.54027C17.4618 2.5943 14.846 1.49164 12.0341 1.49164C6.27932 1.49164 1.5708 6.1619 1.63623 11.9349C1.63623 13.8808 2.22479 15.762 3.20568 17.3835L3.46724 17.7727L2.421 21.5998L6.34466 20.6267Z" fill="#00E676"/>
<path d="M20.5348 3.5027C18.3114 1.23247 15.2378 0 12.0989 0C5.42865 0 0.0662299 5.38376 0.131573 11.9351C0.131573 14.0108 0.720126 16.0217 1.70111 17.8378L0.000793457 24L6.3441 22.3784C8.10976 23.3514 10.0715 23.8055 12.0335 23.8055C18.6384 23.8055 24.0008 18.4216 24.0008 11.8704C24.0008 8.69193 22.7583 5.70811 20.5349 3.5027H20.5348ZM12.0989 21.7947C10.3332 21.7947 8.56754 21.3407 7.06343 20.4326L6.6711 20.238L2.87822 21.2109L3.85911 17.5137L3.59755 17.1244C0.720126 12.5191 2.09345 6.42161 6.80187 3.56751C11.5103 0.713502 17.5921 2.07569 20.4695 6.74595C23.3468 11.4162 21.9735 17.4487 17.2652 20.3028C15.761 21.2757 13.93 21.7946 12.0989 21.7946V21.7947ZM17.8536 14.5948L17.1343 14.2704C17.1343 14.2704 16.088 13.8163 15.4341 13.492C15.3686 13.492 15.3033 13.4271 15.2378 13.4271C15.0416 13.4271 14.9108 13.492 14.7801 13.5569C14.7801 13.5569 14.7147 13.6217 13.7992 14.6596C13.7337 14.7893 13.603 14.8542 13.4722 14.8542H13.4067C13.3414 14.8542 13.2106 14.7893 13.1452 14.7245L12.8182 14.5948C12.0989 14.2704 11.445 13.8812 10.9217 13.3623C10.791 13.2326 10.5948 13.1028 10.464 12.9731C10.0062 12.5191 9.54843 12.0001 9.22153 11.4163L9.15609 11.2866C9.09074 11.2217 9.09075 11.1569 9.02531 11.0272C9.02531 10.8974 9.02531 10.7677 9.09075 10.7028C9.09075 10.7028 9.3523 10.3785 9.54843 10.1839C9.6793 10.0541 9.74464 9.85959 9.87542 9.72987C10.0062 9.53524 10.0716 9.2758 10.0062 9.08118C9.94086 8.75683 9.15609 7.00549 8.95997 6.61633C8.82909 6.4217 8.69841 6.35689 8.50219 6.29198H7.78286C7.65199 6.29198 7.5213 6.35689 7.39043 6.35689L7.32499 6.4217C7.19421 6.48661 7.06343 6.61633 6.93265 6.68114C6.80188 6.81095 6.73644 6.94058 6.60566 7.07039C6.14789 7.65418 5.88633 8.36768 5.88633 9.08118C5.88633 9.60006 6.01711 10.119 6.21332 10.5731L6.27876 10.7677C6.86731 12.0001 7.65199 13.1028 8.69841 14.0758L8.95997 14.3352C9.15609 14.5298 9.3523 14.6596 9.48308 14.8541C10.8564 16.0218 12.4258 16.865 14.1915 17.319C14.3877 17.3839 14.6493 17.3839 14.8455 17.4488H15.4994C15.8264 17.4488 16.2187 17.319 16.4804 17.1893C16.6765 17.0596 16.8073 17.0596 16.9381 16.9299L17.0689 16.8001C17.1997 16.6704 17.3305 16.6055 17.4613 16.4758C17.5921 16.3461 17.7228 16.2164 17.7883 16.0866C17.919 15.8271 17.9844 15.5028 18.0498 15.1785V14.7245C18.0498 14.7245 17.9844 14.6596 17.8536 14.5948Z" fill="white"/>
</svg>
